# xmcd CD database file
#
# Track frame offsets:
#	150
#	22067
#	44413
#	63209
#	80234
#	95007
#	113794
#	126844
#	147101
#	171046
#	184730
#	220799
#
# Disc length: 3231 seconds
#
# Revision: 0
# Processed by: cddbd v1.5.2PL0 Copyright (c) Steve Scherf et al.
# Submitted via: CDex 1.70beta2
#
DISCID=ab0c9d0c
DTITLE=Trio Petrucciani - Sarah
DYEAR=2007
DGENRE=Jazz
TTITLE0=Sarah
TTITLE1=Louis' Blues
TTITLE2=Mike P.
TTITLE3=The cat
TTITLE4=Nuage
TTITLE5=Brazilian like
TTITLE6=Chapitre 5
TTITLE7=Blues for Wes
TTITLE8=Home
TTITLE9=Appogia
TTITLE10=Solitude
TTITLE11=Le libre
EXTD=YEAR: 2007
EXTT0=
EXTT1=
EXTT2=
EXTT3=
EXTT4=
EXTT5=
EXTT6=
EXTT7=
EXTT8=
EXTT9=
EXTT10=
EXTT11=
PLAYORDER=
